<svg xmlns="http://www.w3.org/2000/svg" xmlns:xlink="http://www.w3.org/1999/xlink" width="250" zoomAndPan="magnify" viewBox="0 0 187.5 135.000003" height="180" preserveAspectRatio="xMidYMid meet" version="1.0"><defs><g/><clipPath id="5b782850e4"><path d="M 0.441406 61 L 3 61 L 3 131 L 0.441406 131 Z M 0.441406 61 " clip-rule="nonzero"/></clipPath><clipPath id="b72b9f69b3"><path d="M 0.441406 0 L 43 0 L 43 82 L 0.441406 82 Z M 0.441406 0 " clip-rule="nonzero"/></clipPath><clipPath id="60824f7e34"><path d="M 0.441406 3 L 3 3 L 3 74 L 0.441406 74 Z M 0.441406 3 " clip-rule="nonzero"/></clipPath><clipPath id="436786843b"><path d="M 0.441406 51 L 51 51 L 51 134.007812 L 0.441406 134.007812 Z M 0.441406 51 " clip-rule="nonzero"/></clipPath><clipPath id="e56aaaaf6d"><path d="M 5.027344 4.976562 L 30 4.976562 L 30 52.824219 L 5.027344 52.824219 Z M 5.027344 4.976562 " clip-rule="nonzero"/></clipPath><clipPath id="3e3b7d68e7"><path d="M 5 52.5 L 44 52.5 L 44 129.367188 L 5 129.367188 Z M 5 52.5 " clip-rule="nonzero"/></clipPath><clipPath id="5457aa5427"><path d="M 29.714844 96 L 186.5625 96 L 186.5625 124.996094 L 29.714844 124.996094 Z M 29.714844 96 " clip-rule="nonzero"/></clipPath><clipPath id="394d44430f"><path d="M 50 47.015625 L 160 47.015625 L 160 54.460938 L 50 54.460938 Z M 50 47.015625 " clip-rule="nonzero"/></clipPath></defs><g fill="#ffffff" fill-opacity="1"><g transform="translate(45.821969, 45.297379)"><g><path d="M 34.6875 -0.046875 C 34.6875 0.015625 34.625 0.0625 34.5 0.09375 C 34.375 0.125 34.25 0.140625 34.125 0.140625 C 33.90625 0.140625 33.539062 0.113281 33.03125 0.0625 C 32.53125 0.0195312 31.625 0 30.3125 0 C 29.707031 0 29.035156 0.0195312 28.296875 0.0625 C 27.566406 0.113281 27.046875 0.140625 26.734375 0.140625 L 19.765625 -10.03125 C 19.390625 -10.59375 18.941406 -11.203125 18.421875 -11.859375 C 17.898438 -12.515625 17.332031 -13.109375 16.71875 -13.640625 C 16.113281 -14.179688 15.46875 -14.628906 14.78125 -14.984375 C 14.09375 -15.347656 13.351562 -15.53125 12.5625 -15.53125 C 11.65625 -15.53125 10.863281 -15.300781 10.1875 -14.84375 C 9.507812 -14.394531 9.171875 -13.648438 9.171875 -12.609375 L 9.171875 -6.96875 C 9.171875 -6.375 9.191406 -5.738281 9.234375 -5.0625 C 9.285156 -4.382812 9.375 -3.75 9.5 -3.15625 C 9.625 -2.5625 9.8125 -2.035156 10.0625 -1.578125 C 10.320312 -1.117188 10.640625 -0.8125 11.015625 -0.65625 C 11.703125 -0.40625 12.046875 -0.203125 12.046875 -0.046875 C 12.046875 0.078125 11.890625 0.140625 11.578125 0.140625 C 11.140625 0.140625 10.570312 0.113281 9.875 0.0625 C 9.1875 0.0195312 8.28125 0 7.15625 0 C 6.019531 0 5.160156 0.0195312 4.578125 0.0625 C 4.003906 0.113281 3.578125 0.140625 3.296875 0.140625 C 2.765625 0.140625 2.5 0.078125 2.5 -0.046875 C 2.5 -0.171875 2.828125 -0.359375 3.484375 -0.609375 C 3.765625 -0.734375 4.015625 -1.023438 4.234375 -1.484375 C 4.453125 -1.941406 4.625 -2.472656 4.75 -3.078125 C 4.875 -3.691406 4.96875 -4.34375 5.03125 -5.03125 C 5.09375 -5.726562 5.125 -6.375 5.125 -6.96875 L 5.125 -24 C 5.125 -25.632812 5.015625 -26.90625 4.796875 -27.8125 C 4.578125 -28.71875 4.109375 -29.347656 3.390625 -29.703125 C 3.171875 -29.796875 3.0625 -29.921875 3.0625 -30.078125 C 3.0625 -30.234375 3.234375 -30.3125 3.578125 -30.3125 C 3.765625 -30.3125 4.1875 -30.28125 4.84375 -30.21875 C 5.5 -30.15625 6.269531 -30.125 7.15625 -30.125 C 7.6875 -30.125 8.234375 -30.15625 8.796875 -30.21875 C 9.359375 -30.28125 9.910156 -30.3125 10.453125 -30.3125 C 10.765625 -30.3125 10.921875 -30.21875 10.921875 -30.03125 C 10.921875 -29.875 10.703125 -29.6875 10.265625 -29.46875 C 9.785156 -29.269531 9.484375 -28.769531 9.359375 -27.96875 C 9.234375 -27.175781 9.171875 -26.375 9.171875 -25.5625 L 9.171875 -15.90625 L 17.40625 -22.078125 C 18.257812 -22.703125 19.078125 -23.332031 19.859375 -23.96875 C 20.640625 -24.613281 21.328125 -25.21875 21.921875 -25.78125 C 22.523438 -26.351562 23.003906 -26.859375 23.359375 -27.296875 C 23.722656 -27.734375 23.90625 -28.09375 23.90625 -28.375 C 23.90625 -28.84375 23.734375 -29.1875 23.390625 -29.40625 C 23.234375 -29.539062 23.097656 -29.640625 22.984375 -29.703125 C 22.878906 -29.765625 22.828125 -29.84375 22.828125 -29.9375 C 22.828125 -30.09375 22.90625 -30.191406 23.0625 -30.234375 C 23.21875 -30.285156 23.40625 -30.3125 23.625 -30.3125 C 24.0625 -30.3125 24.515625 -30.28125 24.984375 -30.21875 C 25.460938 -30.15625 25.921875 -30.125 26.359375 -30.125 C 26.984375 -30.125 27.597656 -30.15625 28.203125 -30.21875 C 28.816406 -30.28125 29.441406 -30.3125 30.078125 -30.3125 C 31.265625 -30.3125 31.859375 -30.1875 31.859375 -29.9375 C 31.859375 -29.8125 31.597656 -29.648438 31.078125 -29.453125 C 30.566406 -29.265625 29.992188 -29.03125 29.359375 -28.75 C 28.796875 -28.5 28.296875 -28.265625 27.859375 -28.046875 C 27.421875 -27.828125 27.003906 -27.597656 26.609375 -27.359375 C 26.222656 -27.128906 25.820312 -26.875 25.40625 -26.59375 C 25 -26.3125 24.546875 -25.984375 24.046875 -25.609375 L 12.234375 -16.703125 L 12.234375 -16.609375 C 14.210938 -16.515625 15.828125 -16.359375 17.078125 -16.140625 C 18.335938 -15.921875 19.4375 -15.546875 20.375 -15.015625 C 21.320312 -14.484375 22.191406 -13.738281 22.984375 -12.78125 C 23.785156 -11.820312 24.707031 -10.570312 25.75 -9.03125 C 26.21875 -8.34375 26.71875 -7.613281 27.25 -6.84375 C 27.78125 -6.070312 28.351562 -5.328125 28.96875 -4.609375 C 29.582031 -3.890625 30.222656 -3.222656 30.890625 -2.609375 C 31.566406 -1.992188 32.28125 -1.46875 33.03125 -1.03125 C 33.507812 -0.75 33.90625 -0.535156 34.21875 -0.390625 C 34.53125 -0.253906 34.6875 -0.140625 34.6875 -0.046875 Z M 34.6875 -0.046875 "/></g></g></g><g fill="#ffffff" fill-opacity="1"><g transform="translate(78.670299, 45.297379)"><g><path d="M 27.109375 -0.234375 C 27.109375 -0.015625 26.96875 0.09375 26.6875 0.09375 C 26.59375 0.09375 26.320312 0.078125 25.875 0.046875 C 25.4375 0.015625 25.09375 0 24.84375 0 C 24.53125 0 24.222656 0.015625 23.921875 0.046875 C 23.628906 0.078125 23.359375 0.09375 23.109375 0.09375 C 22.921875 0.09375 22.78125 0.046875 22.6875 -0.046875 C 22.59375 -0.140625 22.546875 -0.21875 22.546875 -0.28125 C 22.546875 -0.875 22.425781 -1.59375 22.1875 -2.4375 C 21.957031 -3.289062 21.8125 -4.046875 21.75 -4.703125 L 21.65625 -4.703125 C 20.644531 -2.660156 19.273438 -1.25 17.546875 -0.46875 C 15.828125 0.3125 13.882812 0.703125 11.71875 0.703125 C 10.59375 0.703125 9.429688 0.550781 8.234375 0.25 C 7.046875 -0.0390625 5.960938 -0.5 4.984375 -1.125 C 4.015625 -1.757812 3.222656 -2.546875 2.609375 -3.484375 C 1.992188 -4.421875 1.6875 -5.535156 1.6875 -6.828125 C 1.6875 -8.609375 2.273438 -10.046875 3.453125 -11.140625 C 4.628906 -12.242188 6.050781 -13.085938 7.71875 -13.671875 C 9.382812 -14.253906 11.140625 -14.640625 12.984375 -14.828125 C 14.835938 -15.015625 16.425781 -15.109375 17.75 -15.109375 L 21.3125 -15.109375 C 21.3125 -16.484375 21.203125 -17.71875 20.984375 -18.8125 C 20.765625 -19.914062 20.375 -20.851562 19.8125 -21.625 C 19.25 -22.394531 18.476562 -22.984375 17.5 -23.390625 C 16.53125 -23.796875 15.296875 -24 13.796875 -24 C 12.972656 -24 12.054688 -23.890625 11.046875 -23.671875 C 10.046875 -23.453125 9.097656 -23.113281 8.203125 -22.65625 C 7.316406 -22.207031 6.539062 -21.632812 5.875 -20.9375 C 5.21875 -20.25 4.84375 -19.4375 4.75 -18.5 C 4.75 -18.375 4.671875 -18.3125 4.515625 -18.3125 C 4.421875 -18.3125 4.359375 -18.359375 4.328125 -18.453125 L 3.0625 -22.921875 C 4.90625 -23.734375 6.742188 -24.3125 8.578125 -24.65625 C 10.421875 -25 12.109375 -25.171875 13.640625 -25.171875 C 15.773438 -25.171875 17.570312 -24.953125 19.03125 -24.515625 C 20.488281 -24.078125 21.664062 -23.445312 22.5625 -22.625 C 23.457031 -21.8125 24.097656 -20.847656 24.484375 -19.734375 C 24.878906 -18.628906 25.078125 -17.382812 25.078125 -16 L 25.078125 -7.0625 C 25.078125 -6.3125 25.097656 -5.570312 25.140625 -4.84375 C 25.191406 -4.125 25.28125 -3.46875 25.40625 -2.875 C 25.539062 -2.28125 25.71875 -1.773438 25.9375 -1.359375 C 26.15625 -0.953125 26.421875 -0.703125 26.734375 -0.609375 C 26.984375 -0.515625 27.109375 -0.390625 27.109375 -0.234375 Z M 21.3125 -13.9375 L 17.84375 -13.9375 C 16.582031 -13.9375 15.269531 -13.851562 13.90625 -13.6875 C 12.539062 -13.53125 11.285156 -13.191406 10.140625 -12.671875 C 8.992188 -12.160156 8.050781 -11.429688 7.3125 -10.484375 C 6.582031 -9.546875 6.21875 -8.296875 6.21875 -6.734375 C 6.21875 -5.691406 6.40625 -4.78125 6.78125 -4 C 7.15625 -3.21875 7.65625 -2.566406 8.28125 -2.046875 C 8.90625 -1.523438 9.648438 -1.128906 10.515625 -0.859375 C 11.378906 -0.597656 12.28125 -0.46875 13.21875 -0.46875 C 14.976562 -0.46875 16.390625 -0.789062 17.453125 -1.4375 C 18.523438 -2.082031 19.34375 -2.9375 19.90625 -4 C 20.46875 -5.0625 20.84375 -6.273438 21.03125 -7.640625 C 21.21875 -9.003906 21.3125 -10.410156 21.3125 -11.859375 Z M 21.3125 -13.9375 "/></g></g></g><g fill="#ffffff" fill-opacity="1"><g transform="translate(106.294889, 45.297379)"><g><path d="M 15.34375 -20.46875 C 15.0625 -20.71875 14.722656 -20.984375 14.328125 -21.265625 C 13.941406 -21.554688 13.429688 -21.703125 12.796875 -21.703125 C 11.828125 -21.703125 11.003906 -21.414062 10.328125 -20.84375 C 9.648438 -20.28125 9.109375 -19.460938 8.703125 -18.390625 C 8.296875 -17.328125 8.003906 -16.039062 7.828125 -14.53125 C 7.660156 -13.03125 7.578125 -11.351562 7.578125 -9.5 L 7.578125 -6.640625 C 7.578125 -4.878906 7.722656 -3.476562 8.015625 -2.4375 C 8.316406 -1.40625 8.941406 -0.828125 9.890625 -0.703125 C 10.421875 -0.640625 10.6875 -0.453125 10.6875 -0.140625 C 10.6875 0.015625 10.5625 0.09375 10.3125 0.09375 C 9.894531 0.09375 9.296875 0.078125 8.515625 0.046875 C 7.734375 0.015625 6.9375 0 6.125 0 C 5.300781 0 4.5 0.015625 3.71875 0.046875 C 2.9375 0.078125 2.335938 0.09375 1.921875 0.09375 C 1.796875 0.09375 1.671875 0.0664062 1.546875 0.015625 C 1.421875 -0.0234375 1.359375 -0.078125 1.359375 -0.140625 C 1.359375 -0.296875 1.628906 -0.5 2.171875 -0.75 C 2.921875 -1.09375 3.425781 -1.757812 3.6875 -2.75 C 3.957031 -3.738281 4.09375 -5.316406 4.09375 -7.484375 L 4.09375 -21.125 C 4.09375 -21.601562 3.925781 -21.988281 3.59375 -22.28125 C 3.269531 -22.582031 2.90625 -22.8125 2.5 -22.96875 C 2.3125 -23.03125 2.144531 -23.09375 2 -23.15625 C 1.851562 -23.21875 1.78125 -23.28125 1.78125 -23.34375 C 1.78125 -23.40625 1.988281 -23.5 2.40625 -23.625 L 7.296875 -24.9375 L 7.296875 -18.359375 L 7.390625 -18.359375 C 8.453125 -20.679688 9.71875 -22.394531 11.1875 -23.5 C 12.664062 -24.613281 14.582031 -25.171875 16.9375 -25.171875 Z M 15.34375 -20.46875 "/></g></g></g><g fill="#ffffff" fill-opacity="1"><g transform="translate(122.57787, 45.297379)"><g><path d="M 10.734375 -0.09375 C 10.734375 -0.03125 10.628906 0.015625 10.421875 0.046875 C 10.222656 0.078125 10.0625 0.09375 9.9375 0.09375 C 9.644531 0.09375 9.128906 0.078125 8.390625 0.046875 C 7.660156 0.015625 6.953125 0 6.265625 0 C 5.566406 0 4.84375 0.015625 4.09375 0.046875 C 3.34375 0.078125 2.765625 0.09375 2.359375 0.09375 C 1.910156 0.09375 1.625 0.078125 1.5 0.046875 C 1.375 0.015625 1.3125 -0.03125 1.3125 -0.09375 C 1.3125 -0.21875 1.4375 -0.328125 1.6875 -0.421875 C 1.945312 -0.515625 2.25 -0.640625 2.59375 -0.796875 C 3.03125 -0.984375 3.375 -1.367188 3.625 -1.953125 C 3.875 -2.535156 4.0625 -3.253906 4.1875 -4.109375 C 4.3125 -4.972656 4.394531 -5.953125 4.4375 -7.046875 C 4.488281 -8.148438 4.515625 -9.316406 4.515625 -10.546875 L 4.515625 -27.25 C 4.515625 -29.007812 4.394531 -30.234375 4.15625 -30.921875 C 3.925781 -31.609375 3.5 -32.0625 2.875 -32.28125 C 2.5625 -32.375 2.40625 -32.46875 2.40625 -32.5625 C 2.40625 -32.625 2.453125 -32.675781 2.546875 -32.71875 C 2.640625 -32.769531 2.734375 -32.8125 2.828125 -32.84375 L 8 -34.125 L 8 -6.828125 C 8 -6.128906 8.019531 -5.453125 8.0625 -4.796875 C 8.113281 -4.140625 8.191406 -3.53125 8.296875 -2.96875 C 8.410156 -2.40625 8.582031 -1.925781 8.8125 -1.53125 C 9.050781 -1.132812 9.359375 -0.859375 9.734375 -0.703125 C 9.992188 -0.609375 10.222656 -0.515625 10.421875 -0.421875 C 10.628906 -0.328125 10.734375 -0.21875 10.734375 -0.09375 Z M 10.734375 -0.09375 "/></g></g></g><g fill="#ffffff" fill-opacity="1"><g transform="translate(133.637112, 45.297379)"><g><path d="M 27.109375 -0.234375 C 27.109375 -0.015625 26.96875 0.09375 26.6875 0.09375 C 26.59375 0.09375 26.320312 0.078125 25.875 0.046875 C 25.4375 0.015625 25.09375 0 24.84375 0 C 24.53125 0 24.222656 0.015625 23.921875 0.046875 C 23.628906 0.078125 23.359375 0.09375 23.109375 0.09375 C 22.921875 0.09375 22.78125 0.046875 22.6875 -0.046875 C 22.59375 -0.140625 22.546875 -0.21875 22.546875 -0.28125 C 22.546875 -0.875 22.425781 -1.59375 22.1875 -2.4375 C 21.957031 -3.289062 21.8125 -4.046875 21.75 -4.703125 L 21.65625 -4.703125 C 20.644531 -2.660156 19.273438 -1.25 17.546875 -0.46875 C 15.828125 0.3125 13.882812 0.703125 11.71875 0.703125 C 10.59375 0.703125 9.429688 0.550781 8.234375 0.25 C 7.046875 -0.0390625 5.960938 -0.5 4.984375 -1.125 C 4.015625 -1.757812 3.222656 -2.546875 2.609375 -3.484375 C 1.992188 -4.421875 1.6875 -5.535156 1.6875 -6.828125 C 1.6875 -8.609375 2.273438 -10.046875 3.453125 -11.140625 C 4.628906 -12.242188 6.050781 -13.085938 7.71875 -13.671875 C 9.382812 -14.253906 11.140625 -14.640625 12.984375 -14.828125 C 14.835938 -15.015625 16.425781 -15.109375 17.75 -15.109375 L 21.3125 -15.109375 C 21.3125 -16.484375 21.203125 -17.71875 20.984375 -18.8125 C 20.765625 -19.914062 20.375 -20.851562 19.8125 -21.625 C 19.25 -22.394531 18.476562 -22.984375 17.5 -23.390625 C 16.53125 -23.796875 15.296875 -24 13.796875 -24 C 12.972656 -24 12.054688 -23.890625 11.046875 -23.671875 C 10.046875 -23.453125 9.097656 -23.113281 8.203125 -22.65625 C 7.316406 -22.207031 6.539062 -21.632812 5.875 -20.9375 C 5.21875 -20.25 4.84375 -19.4375 4.75 -18.5 C 4.75 -18.375 4.671875 -18.3125 4.515625 -18.3125 C 4.421875 -18.3125 4.359375 -18.359375 4.328125 -18.453125 L 3.0625 -22.921875 C 4.90625 -23.734375 6.742188 -24.3125 8.578125 -24.65625 C 10.421875 -25 12.109375 -25.171875 13.640625 -25.171875 C 15.773438 -25.171875 17.570312 -24.953125 19.03125 -24.515625 C 20.488281 -24.078125 21.664062 -23.445312 22.5625 -22.625 C 23.457031 -21.8125 24.097656 -20.847656 24.484375 -19.734375 C 24.878906 -18.628906 25.078125 -17.382812 25.078125 -16 L 25.078125 -7.0625 C 25.078125 -6.3125 25.097656 -5.570312 25.140625 -4.84375 C 25.191406 -4.125 25.28125 -3.46875 25.40625 -2.875 C 25.539062 -2.28125 25.71875 -1.773438 25.9375 -1.359375 C 26.15625 -0.953125 26.421875 -0.703125 26.734375 -0.609375 C 26.984375 -0.515625 27.109375 -0.390625 27.109375 -0.234375 Z M 21.3125 -13.9375 L 17.84375 -13.9375 C 16.582031 -13.9375 15.269531 -13.851562 13.90625 -13.6875 C 12.539062 -13.53125 11.285156 -13.191406 10.140625 -12.671875 C 8.992188 -12.160156 8.050781 -11.429688 7.3125 -10.484375 C 6.582031 -9.546875 6.21875 -8.296875 6.21875 -6.734375 C 6.21875 -5.691406 6.40625 -4.78125 6.78125 -4 C 7.15625 -3.21875 7.65625 -2.566406 8.28125 -2.046875 C 8.90625 -1.523438 9.648438 -1.128906 10.515625 -0.859375 C 11.378906 -0.597656 12.28125 -0.46875 13.21875 -0.46875 C 14.976562 -0.46875 16.390625 -0.789062 17.453125 -1.4375 C 18.523438 -2.082031 19.34375 -2.9375 19.90625 -4 C 20.46875 -5.0625 20.84375 -6.273438 21.03125 -7.640625 C 21.21875 -9.003906 21.3125 -10.410156 21.3125 -11.859375 Z M 21.3125 -13.9375 "/></g></g></g><g fill="#ffffff" fill-opacity="1"><g transform="translate(161.267713, 45.297379)"><g/></g></g><g clip-path="url(#5b782850e4)"><path stroke-linecap="butt" transform="matrix(0, -0.744485, 0.744485, 0, 0.420269, 129.334432)" fill="none" stroke-linejoin="miter" d="M -0.00202269 1.497527 L 90.218658 1.497527 " stroke="#ca7f0f" stroke-width="3" stroke-opacity="1" stroke-miterlimit="4"/></g><g clip-path="url(#b72b9f69b3)"><path stroke-linecap="butt" transform="matrix(0.297157, -0.68261, 0.68261, 0.297157, 0.421112, 69.238591)" fill="none" stroke-linejoin="miter" d="M 0.655389 1.34673 C 32.010934 16.612796 63.364334 16.612107 94.722493 1.347379 " stroke="#ca7f0f" stroke-width="3" stroke-opacity="1" stroke-miterlimit="4"/></g><g fill="#ffffff" fill-opacity="1"><g transform="translate(49.124363, 93.009329)"><g><path d="M 1.015625 0 L 1.015625 -6.125 L 1.734375 -6.125 L 6.53125 -1.03125 L 6.40625 -1.03125 L 6.40625 -6.125 L 7.21875 -6.125 L 7.21875 0 L 6.484375 0 L 1.71875 -5.078125 L 1.828125 -5.078125 L 1.828125 0 Z M 1.015625 0 "/></g></g></g><g fill="#ffffff" fill-opacity="1"><g transform="translate(60.184679, 93.009329)"><g><path d="M 3.984375 0.078125 C 2.972656 0.078125 2.210938 -0.128906 1.703125 -0.546875 C 1.191406 -0.960938 0.9375 -1.578125 0.9375 -2.390625 L 0.9375 -6.125 L 1.78125 -6.125 L 1.78125 -2.421875 C 1.78125 -1.828125 1.960938 -1.382812 2.328125 -1.09375 C 2.703125 -0.800781 3.253906 -0.65625 3.984375 -0.65625 C 4.722656 -0.65625 5.273438 -0.800781 5.640625 -1.09375 C 6.003906 -1.382812 6.1875 -1.828125 6.1875 -2.421875 L 6.1875 -6.125 L 7.015625 -6.125 L 7.015625 -2.390625 C 7.015625 -1.578125 6.757812 -0.960938 6.25 -0.546875 C 5.75 -0.128906 4.992188 0.078125 3.984375 0.078125 Z M 3.984375 0.078125 "/></g></g></g><g fill="#ffffff" fill-opacity="1"><g transform="translate(70.975861, 93.009329)"><g><path d="M 2.890625 0 L 2.890625 -5.421875 L 0.09375 -5.421875 L 0.09375 -6.125 L 6.515625 -6.125 L 6.515625 -5.421875 L 3.71875 -5.421875 L 3.71875 0 Z M 2.890625 0 "/></g></g></g><g fill="#ffffff" fill-opacity="1"><g transform="translate(80.404043, 93.009329)"><g><path d="M 1.015625 0 L 1.015625 -6.125 L 4.140625 -6.125 C 4.929688 -6.125 5.535156 -5.972656 5.953125 -5.671875 C 6.367188 -5.378906 6.578125 -4.953125 6.578125 -4.390625 C 6.578125 -4.023438 6.484375 -3.710938 6.296875 -3.453125 C 6.117188 -3.191406 5.859375 -2.988281 5.515625 -2.84375 C 5.171875 -2.695312 4.753906 -2.617188 4.265625 -2.609375 L 4.359375 -2.671875 L 4.53125 -2.671875 C 4.769531 -2.660156 4.984375 -2.597656 5.171875 -2.484375 C 5.359375 -2.367188 5.53125 -2.203125 5.6875 -1.984375 L 7.046875 0 L 6.109375 0 L 4.828125 -1.90625 C 4.710938 -2.0625 4.597656 -2.1875 4.484375 -2.28125 C 4.378906 -2.375 4.242188 -2.4375 4.078125 -2.46875 C 3.921875 -2.5 3.710938 -2.515625 3.453125 -2.515625 L 1.84375 -2.515625 L 1.84375 0 Z M 1.84375 -3.171875 L 4.078125 -3.171875 C 4.660156 -3.171875 5.082031 -3.265625 5.34375 -3.453125 C 5.613281 -3.648438 5.75 -3.941406 5.75 -4.328125 C 5.75 -4.722656 5.613281 -5.007812 5.34375 -5.1875 C 5.070312 -5.363281 4.644531 -5.453125 4.0625 -5.453125 L 1.84375 -5.453125 Z M 1.84375 -3.171875 "/></g></g></g><g fill="#ffffff" fill-opacity="1"><g transform="translate(90.622238, 93.009329)"><g><path d="M 1.015625 0 L 1.015625 -6.125 L 1.84375 -6.125 L 1.84375 0 Z M 1.015625 0 "/></g></g></g><g fill="#ffffff" fill-opacity="1"><g transform="translate(96.31733, 93.009329)"><g><path d="M 4.21875 0.078125 C 3.5 0.078125 2.875 -0.046875 2.34375 -0.296875 C 1.820312 -0.546875 1.421875 -0.90625 1.140625 -1.375 C 0.859375 -1.84375 0.71875 -2.40625 0.71875 -3.0625 C 0.71875 -3.71875 0.859375 -4.28125 1.140625 -4.75 C 1.429688 -5.21875 1.835938 -5.578125 2.359375 -5.828125 C 2.890625 -6.078125 3.515625 -6.203125 4.234375 -6.203125 C 4.765625 -6.203125 5.253906 -6.128906 5.703125 -5.984375 C 6.148438 -5.847656 6.53125 -5.640625 6.84375 -5.359375 L 6.5 -4.71875 C 6.164062 -4.976562 5.820312 -5.164062 5.46875 -5.28125 C 5.113281 -5.40625 4.707031 -5.46875 4.25 -5.46875 C 3.414062 -5.46875 2.765625 -5.257812 2.296875 -4.84375 C 1.828125 -4.425781 1.59375 -3.832031 1.59375 -3.0625 C 1.59375 -2.28125 1.820312 -1.679688 2.28125 -1.265625 C 2.75 -0.859375 3.40625 -0.65625 4.25 -0.65625 C 4.707031 -0.65625 5.113281 -0.710938 5.46875 -0.828125 C 5.820312 -0.953125 6.164062 -1.144531 6.5 -1.40625 L 6.84375 -0.765625 C 6.53125 -0.492188 6.148438 -0.285156 5.703125 -0.140625 C 5.253906 0.00390625 4.757812 0.078125 4.21875 0.078125 Z M 4.21875 0.078125 "/></g></g></g><g fill="#ffffff" fill-opacity="1"><g transform="translate(106.518164, 93.009329)"><g><path d="M 1.015625 0 L 1.015625 -6.125 L 1.84375 -6.125 L 1.84375 0 Z M 1.015625 0 "/></g></g></g><g fill="#ffffff" fill-opacity="1"><g transform="translate(112.213258, 93.009329)"><g><path d="M 4.203125 0.078125 C 3.660156 0.078125 3.175781 0.00390625 2.75 -0.140625 C 2.320312 -0.285156 1.957031 -0.492188 1.65625 -0.765625 C 1.351562 -1.035156 1.117188 -1.363281 0.953125 -1.75 C 0.796875 -2.132812 0.71875 -2.570312 0.71875 -3.0625 C 0.71875 -3.539062 0.796875 -3.972656 0.953125 -4.359375 C 1.117188 -4.742188 1.351562 -5.070312 1.65625 -5.34375 C 1.957031 -5.625 2.320312 -5.835938 2.75 -5.984375 C 3.1875 -6.128906 3.671875 -6.203125 4.203125 -6.203125 C 4.734375 -6.203125 5.210938 -6.128906 5.640625 -5.984375 C 6.078125 -5.835938 6.445312 -5.628906 6.75 -5.359375 C 7.050781 -5.085938 7.28125 -4.753906 7.4375 -4.359375 C 7.601562 -3.972656 7.6875 -3.539062 7.6875 -3.0625 C 7.6875 -2.582031 7.601562 -2.148438 7.4375 -1.765625 C 7.28125 -1.378906 7.050781 -1.046875 6.75 -0.765625 C 6.445312 -0.492188 6.078125 -0.285156 5.640625 -0.140625 C 5.210938 0.00390625 4.734375 0.078125 4.203125 0.078125 Z M 4.203125 -0.640625 C 4.742188 -0.640625 5.207031 -0.734375 5.59375 -0.921875 C 5.988281 -1.117188 6.289062 -1.394531 6.5 -1.75 C 6.707031 -2.113281 6.8125 -2.550781 6.8125 -3.0625 C 6.8125 -3.570312 6.707031 -4.007812 6.5 -4.375 C 6.289062 -4.738281 5.988281 -5.015625 5.59375 -5.203125 C 5.207031 -5.390625 4.742188 -5.484375 4.203125 -5.484375 C 3.648438 -5.484375 3.179688 -5.382812 2.796875 -5.1875 C 2.410156 -5 2.109375 -4.722656 1.890625 -4.359375 C 1.679688 -4.003906 1.578125 -3.570312 1.578125 -3.0625 C 1.578125 -2.550781 1.679688 -2.113281 1.890625 -1.75 C 2.097656 -1.394531 2.398438 -1.117188 2.796875 -0.921875 C 3.191406 -0.734375 3.660156 -0.640625 4.203125 -0.640625 Z M 4.203125 -0.640625 "/></g></g></g><g fill="#ffffff" fill-opacity="1"><g transform="translate(123.438522, 93.009329)"><g><path d="M 1.015625 0 L 1.015625 -6.125 L 1.734375 -6.125 L 6.53125 -1.03125 L 6.40625 -1.03125 L 6.40625 -6.125 L 7.21875 -6.125 L 7.21875 0 L 6.484375 0 L 1.71875 -5.078125 L 1.828125 -5.078125 L 1.828125 0 Z M 1.015625 0 "/></g></g></g><g fill="#ffffff" fill-opacity="1"><g transform="translate(134.49884, 93.009329)"><g><path d="M 1.015625 0 L 1.015625 -6.125 L 1.84375 -6.125 L 1.84375 0 Z M 1.015625 0 "/></g></g></g><g fill="#ffffff" fill-opacity="1"><g transform="translate(140.193935, 93.009329)"><g><path d="M 3.46875 0.078125 C 3.082031 0.078125 2.707031 0.0507812 2.34375 0 C 1.988281 -0.0625 1.660156 -0.148438 1.359375 -0.265625 C 1.054688 -0.378906 0.789062 -0.523438 0.5625 -0.703125 L 0.890625 -1.359375 C 1.148438 -1.179688 1.414062 -1.035156 1.6875 -0.921875 C 1.957031 -0.816406 2.238281 -0.742188 2.53125 -0.703125 C 2.832031 -0.660156 3.15625 -0.640625 3.5 -0.640625 C 4.125 -0.640625 4.601562 -0.722656 4.9375 -0.890625 C 5.28125 -1.054688 5.453125 -1.304688 5.453125 -1.640625 C 5.453125 -1.847656 5.394531 -2.007812 5.28125 -2.125 C 5.164062 -2.25 5.003906 -2.34375 4.796875 -2.40625 C 4.597656 -2.476562 4.351562 -2.535156 4.0625 -2.578125 L 2.671875 -2.75 C 1.992188 -2.84375 1.5 -3.023438 1.1875 -3.296875 C 0.875 -3.566406 0.71875 -3.9375 0.71875 -4.40625 C 0.71875 -4.769531 0.832031 -5.085938 1.0625 -5.359375 C 1.300781 -5.628906 1.625 -5.835938 2.03125 -5.984375 C 2.445312 -6.128906 2.9375 -6.203125 3.5 -6.203125 C 3.851562 -6.203125 4.1875 -6.171875 4.5 -6.109375 C 4.820312 -6.046875 5.113281 -5.953125 5.375 -5.828125 C 5.644531 -5.710938 5.882812 -5.566406 6.09375 -5.390625 L 5.765625 -4.75 C 5.429688 -5.007812 5.082031 -5.195312 4.71875 -5.3125 C 4.351562 -5.425781 3.9375 -5.484375 3.46875 -5.484375 C 3.070312 -5.484375 2.726562 -5.441406 2.4375 -5.359375 C 2.15625 -5.285156 1.9375 -5.171875 1.78125 -5.015625 C 1.632812 -4.859375 1.5625 -4.664062 1.5625 -4.4375 C 1.5625 -4.15625 1.660156 -3.941406 1.859375 -3.796875 C 2.066406 -3.648438 2.394531 -3.546875 2.84375 -3.484375 L 4.203125 -3.296875 C 4.890625 -3.203125 5.40625 -3.023438 5.75 -2.765625 C 6.101562 -2.515625 6.28125 -2.148438 6.28125 -1.671875 C 6.28125 -1.304688 6.164062 -0.992188 5.9375 -0.734375 C 5.71875 -0.472656 5.398438 -0.269531 4.984375 -0.125 C 4.566406 0.0078125 4.0625 0.078125 3.46875 0.078125 Z M 3.46875 0.078125 "/></g></g></g><g fill="#ffffff" fill-opacity="1"><g transform="translate(149.778377, 93.009329)"><g><path d="M 2.890625 0 L 2.890625 -5.421875 L 0.09375 -5.421875 L 0.09375 -6.125 L 6.515625 -6.125 L 6.515625 -5.421875 L 3.71875 -5.421875 L 3.71875 0 Z M 2.890625 0 "/></g></g></g><g fill="#ffffff" fill-opacity="1"><g transform="translate(159.20656, 93.009329)"><g><path d="M 0.265625 0 L 3.59375 -6.125 L 4.359375 -6.125 L 7.703125 0 L 6.8125 0 L 5.875 -1.75 L 6.3125 -1.5 L 1.640625 -1.5 L 2.078125 -1.75 L 1.125 0 Z M 3.96875 -5.3125 L 2.203125 -2 L 1.921875 -2.1875 L 6.015625 -2.1875 L 5.734375 -2 L 3.984375 -5.3125 Z M 3.96875 -5.3125 "/></g></g></g><g clip-path="url(#60824f7e34)"><path stroke-linecap="butt" transform="matrix(0, -0.744485, 0.744485, 0, 0.420269, 72.149398)" fill="none" stroke-linejoin="miter" d="M 0.00128962 1.497527 L 90.22197 1.497527 " stroke="#ca7f0f" stroke-width="3" stroke-opacity="1" stroke-miterlimit="4"/></g><g clip-path="url(#436786843b)"><path stroke-linecap="butt" transform="matrix(0.314938, 0.674591, -0.674591, 0.314938, 14.641617, 60.023405)" fill="none" stroke-linejoin="miter" d="M 0.575191 11.555785 C 32.69506 -1.851436 64.815989 -1.853038 96.931004 11.553512 " stroke="#ca7f0f" stroke-width="3" stroke-opacity="1" stroke-miterlimit="4"/></g><g clip-path="url(#e56aaaaf6d)"><path fill="#ca7f0f" d="M 5.398438 52.484375 L 5.398438 52.050781 C 18.253906 52.050781 28.714844 41.589844 28.714844 28.730469 C 28.714844 15.875 18.253906 5.414062 5.398438 5.414062 L 5.398438 4.976562 C 6.757812 4.980469 8.109375 5.097656 9.449219 5.328125 C 10.789062 5.5625 12.097656 5.90625 13.378906 6.363281 C 14.660156 6.820312 15.890625 7.386719 17.074219 8.054688 C 18.257812 8.722656 19.378906 9.488281 20.429688 10.351562 C 21.480469 11.210938 22.453125 12.15625 23.34375 13.183594 C 24.234375 14.210938 25.03125 15.308594 25.734375 16.472656 C 26.433594 17.636719 27.03125 18.851562 27.523438 20.121094 C 28.019531 21.386719 28.398438 22.6875 28.671875 24.019531 C 28.941406 25.355469 29.09375 26.699219 29.132812 28.058594 C 29.171875 29.417969 29.09375 30.769531 28.902344 32.117188 C 28.707031 33.464844 28.402344 34.785156 27.980469 36.078125 C 27.5625 37.371094 27.035156 38.617188 26.398438 39.820312 C 25.765625 41.023438 25.035156 42.164062 24.203125 43.242188 C 23.375 44.320312 22.457031 45.316406 21.457031 46.238281 C 20.453125 47.15625 19.382812 47.984375 18.238281 48.71875 C 17.09375 49.457031 15.898438 50.089844 14.644531 50.621094 C 11.691406 51.871094 8.609375 52.492188 5.398438 52.484375 Z M 5.398438 52.484375 " fill-opacity="1" fill-rule="nonzero"/></g><path stroke-linecap="butt" transform="matrix(0, -0.784345, 0.784345, 0, 4.995673, 72.231)" fill="none" stroke-linejoin="miter" d="M 0.000677748 0.498564 L 85.746015 0.498564 " stroke="#ca7f0f" stroke-width="1" stroke-opacity="1" stroke-miterlimit="4"/><path stroke-linecap="butt" transform="matrix(0, -0.784345, 0.784345, 0, 4.998524, 129.137201)" fill="none" stroke-linejoin="miter" d="M 0.000615365 0.499909 L 72.548233 0.499909 " stroke="#ca7f0f" stroke-width="1" stroke-opacity="1" stroke-miterlimit="4"/><g clip-path="url(#3e3b7d68e7)"><path fill="#ca7f0f" d="M 5.007812 129.527344 L 5.007812 128.820312 C 25.855469 128.820312 42.816406 111.859375 42.816406 91.011719 C 42.816406 70.167969 25.855469 53.207031 5.007812 53.207031 L 5.007812 52.5 C 6.109375 52.5 7.207031 52.546875 8.304688 52.644531 C 9.402344 52.738281 10.492188 52.878906 11.574219 53.066406 C 12.660156 53.257812 13.734375 53.492188 14.796875 53.769531 C 15.863281 54.050781 16.910156 54.375 17.949219 54.746094 C 18.984375 55.117188 20.003906 55.53125 21.003906 55.988281 C 22.003906 56.445312 22.984375 56.945312 23.941406 57.488281 C 24.898438 58.027344 25.832031 58.609375 26.742188 59.230469 C 27.648438 59.851562 28.527344 60.511719 29.378906 61.210938 C 30.230469 61.90625 31.050781 62.636719 31.839844 63.40625 C 32.628906 64.171875 33.386719 64.972656 34.105469 65.804688 C 34.824219 66.636719 35.507812 67.496094 36.15625 68.386719 C 36.800781 69.277344 37.410156 70.195312 37.976562 71.136719 C 38.546875 72.078125 39.074219 73.042969 39.558594 74.03125 C 40.042969 75.019531 40.484375 76.027344 40.886719 77.050781 C 41.285156 78.078125 41.640625 79.117188 41.949219 80.171875 C 42.257812 81.230469 42.523438 82.296875 42.742188 83.375 C 42.960938 84.453125 43.132812 85.539062 43.257812 86.632812 C 43.382812 87.726562 43.460938 88.824219 43.492188 89.921875 C 43.523438 91.023438 43.507812 92.121094 43.445312 93.21875 C 43.382812 94.320312 43.273438 95.414062 43.117188 96.503906 C 42.960938 97.589844 42.757812 98.671875 42.507812 99.742188 C 42.257812 100.816406 41.964844 101.875 41.625 102.921875 C 41.285156 103.96875 40.902344 105 40.472656 106.011719 C 40.042969 107.027344 39.574219 108.019531 39.0625 108.992188 C 38.546875 109.964844 37.992188 110.917969 37.398438 111.84375 C 36.804688 112.769531 36.171875 113.667969 35.5 114.539062 C 34.828125 115.410156 34.121094 116.25 33.375 117.0625 C 32.632812 117.875 31.855469 118.652344 31.046875 119.394531 C 30.234375 120.140625 29.394531 120.847656 28.523438 121.519531 C 27.652344 122.191406 26.753906 122.828125 25.828125 123.421875 C 24.902344 124.019531 23.953125 124.574219 22.980469 125.085938 C 22.007812 125.601562 21.015625 126.070312 20 126.5 C 15.210938 128.527344 10.210938 129.539062 5.007812 129.527344 Z M 5.007812 129.527344 " fill-opacity="1" fill-rule="nonzero"/></g><g fill="#ffffff" fill-opacity="1"><g transform="translate(47.561638, 79.875615)"><g><path d="M 28.734375 -7 C 28.734375 -5.882812 28.441406 -4.910156 27.859375 -4.078125 C 27.273438 -3.242188 26.550781 -2.535156 25.6875 -1.953125 C 24.820312 -1.367188 23.882812 -0.921875 22.875 -0.609375 C 21.875 -0.304688 20.9375 -0.128906 20.0625 -0.078125 C 19.082031 -0.0234375 18.125 0.0195312 17.1875 0.0625 C 16.25 0.101562 15.378906 0.125 14.578125 0.125 C 13.941406 0.125 13.21875 0.101562 12.40625 0.0625 C 11.601562 0.0195312 10.765625 0 9.890625 0 L 4.296875 0 C 3.285156 0 2.535156 0.0195312 2.046875 0.0625 C 1.554688 0.101562 1.207031 0.125 1 0.125 C 0.8125 0.125 0.71875 0.0664062 0.71875 -0.046875 C 0.71875 -0.148438 1.007812 -0.296875 1.59375 -0.484375 C 1.851562 -0.554688 2.101562 -0.734375 2.34375 -1.015625 C 2.582031 -1.296875 2.800781 -1.695312 3 -2.21875 C 3.195312 -2.75 3.351562 -3.4375 3.46875 -4.28125 C 3.59375 -5.132812 3.65625 -6.171875 3.65625 -7.390625 L 3.65625 -20.109375 C 3.65625 -21.515625 3.582031 -22.585938 3.4375 -23.328125 C 3.289062 -24.066406 2.820312 -24.609375 2.03125 -24.953125 C 1.863281 -25.035156 1.738281 -25.09375 1.65625 -25.125 C 1.582031 -25.164062 1.546875 -25.238281 1.546875 -25.34375 C 1.546875 -25.40625 1.601562 -25.460938 1.71875 -25.515625 C 1.84375 -25.566406 2.078125 -25.59375 2.421875 -25.59375 L 10.890625 -25.59375 C 13.109375 -25.59375 15.15625 -25.523438 17.03125 -25.390625 C 18.914062 -25.253906 20.546875 -24.972656 21.921875 -24.546875 C 23.304688 -24.128906 24.378906 -23.519531 25.140625 -22.71875 C 25.910156 -21.925781 26.296875 -20.882812 26.296875 -19.59375 C 26.296875 -18.476562 25.957031 -17.539062 25.28125 -16.78125 C 24.613281 -16.03125 23.816406 -15.425781 22.890625 -14.96875 C 21.960938 -14.519531 21.035156 -14.195312 20.109375 -14 C 19.179688 -13.800781 18.453125 -13.703125 17.921875 -13.703125 L 17.921875 -13.625 C 18.867188 -13.550781 19.960938 -13.40625 21.203125 -13.1875 C 22.453125 -12.976562 23.632812 -12.632812 24.75 -12.15625 C 25.863281 -11.675781 26.804688 -11.023438 27.578125 -10.203125 C 28.347656 -9.390625 28.734375 -8.320312 28.734375 -7 Z M 22.171875 -19.671875 C 22.171875 -21.285156 21.46875 -22.507812 20.0625 -23.34375 C 18.65625 -24.175781 16.414062 -24.59375 13.34375 -24.59375 L 7.078125 -24.59375 L 7.078125 -14.140625 L 13.390625 -14.140625 C 14.367188 -14.140625 15.375 -14.1875 16.40625 -14.28125 C 17.4375 -14.375 18.382812 -14.601562 19.25 -14.96875 C 20.113281 -15.34375 20.816406 -15.898438 21.359375 -16.640625 C 21.898438 -17.390625 22.171875 -18.398438 22.171875 -19.671875 Z M 24.46875 -6.828125 C 24.46875 -8.421875 24.050781 -9.640625 23.21875 -10.484375 C 22.382812 -11.335938 21.34375 -11.960938 20.09375 -12.359375 C 18.851562 -12.753906 17.503906 -12.984375 16.046875 -13.046875 C 14.597656 -13.117188 13.25 -13.15625 12 -13.15625 L 7.078125 -13.15625 L 7.078125 -7.875 C 7.078125 -6.488281 7.09375 -5.34375 7.125 -4.4375 C 7.164062 -3.539062 7.285156 -2.84375 7.484375 -2.34375 C 7.679688 -1.84375 7.976562 -1.492188 8.375 -1.296875 C 8.78125 -1.097656 9.335938 -1 10.046875 -1 C 10.660156 -1 11.257812 -0.976562 11.84375 -0.9375 C 12.425781 -0.894531 13.019531 -0.875 13.625 -0.875 C 14.1875 -0.875 14.765625 -0.882812 15.359375 -0.90625 C 15.953125 -0.9375 16.726562 -0.976562 17.6875 -1.03125 C 19.695312 -1.164062 21.328125 -1.6875 22.578125 -2.59375 C 23.835938 -3.507812 24.46875 -4.921875 24.46875 -6.828125 Z M 24.46875 -6.828125 "/></g></g></g><g fill="#ffffff" fill-opacity="1"><g transform="translate(76.764481, 79.875615)"><g><path d="M 12.953125 -17.28125 C 12.710938 -17.5 12.425781 -17.722656 12.09375 -17.953125 C 11.769531 -18.191406 11.34375 -18.3125 10.8125 -18.3125 C 9.988281 -18.3125 9.289062 -18.070312 8.71875 -17.59375 C 8.15625 -17.125 7.695312 -16.4375 7.34375 -15.53125 C 7 -14.632812 6.753906 -13.550781 6.609375 -12.28125 C 6.460938 -11.007812 6.390625 -9.59375 6.390625 -8.03125 L 6.390625 -5.609375 C 6.390625 -4.117188 6.515625 -2.9375 6.765625 -2.0625 C 7.023438 -1.1875 7.550781 -0.695312 8.34375 -0.59375 C 8.789062 -0.539062 9.015625 -0.382812 9.015625 -0.125 C 9.015625 0.0078125 8.910156 0.078125 8.703125 0.078125 C 8.359375 0.078125 7.851562 0.0625 7.1875 0.03125 C 6.53125 0.0078125 5.859375 0 5.171875 0 C 4.472656 0 3.789062 0.0078125 3.125 0.03125 C 2.46875 0.0625 1.96875 0.078125 1.625 0.078125 C 1.519531 0.078125 1.414062 0.0546875 1.3125 0.015625 C 1.207031 -0.0234375 1.15625 -0.0703125 1.15625 -0.125 C 1.15625 -0.25 1.378906 -0.421875 1.828125 -0.640625 C 2.460938 -0.929688 2.890625 -1.492188 3.109375 -2.328125 C 3.335938 -3.160156 3.453125 -4.488281 3.453125 -6.3125 L 3.453125 -17.84375 C 3.453125 -18.238281 3.3125 -18.5625 3.03125 -18.8125 C 2.757812 -19.0625 2.453125 -19.253906 2.109375 -19.390625 C 1.953125 -19.441406 1.8125 -19.492188 1.6875 -19.546875 C 1.570312 -19.597656 1.515625 -19.648438 1.515625 -19.703125 C 1.515625 -19.753906 1.6875 -19.835938 2.03125 -19.953125 L 6.15625 -21.0625 L 6.15625 -15.5 L 6.234375 -15.5 C 7.140625 -17.457031 8.210938 -18.90625 9.453125 -19.84375 C 10.703125 -20.789062 12.316406 -21.265625 14.296875 -21.265625 Z M 12.953125 -17.28125 "/></g></g></g><g fill="#ffffff" fill-opacity="1"><g transform="translate(90.511569, 79.875615)"><g><path d="M 22.890625 -0.203125 C 22.890625 -0.015625 22.769531 0.078125 22.53125 0.078125 C 22.445312 0.078125 22.21875 0.0625 21.84375 0.03125 C 21.476562 0.0078125 21.191406 0 20.984375 0 C 20.710938 0 20.453125 0.0078125 20.203125 0.03125 C 19.953125 0.0625 19.722656 0.078125 19.515625 0.078125 C 19.347656 0.078125 19.222656 0.0390625 19.140625 -0.03125 C 19.066406 -0.113281 19.03125 -0.179688 19.03125 -0.234375 C 19.03125 -0.742188 18.929688 -1.351562 18.734375 -2.0625 C 18.535156 -2.78125 18.410156 -3.414062 18.359375 -3.96875 L 18.28125 -3.96875 C 17.425781 -2.25 16.269531 -1.054688 14.8125 -0.390625 C 13.363281 0.265625 11.722656 0.59375 9.890625 0.59375 C 8.941406 0.59375 7.960938 0.46875 6.953125 0.21875 C 5.941406 -0.03125 5.023438 -0.421875 4.203125 -0.953125 C 3.390625 -1.484375 2.722656 -2.144531 2.203125 -2.9375 C 1.691406 -3.726562 1.4375 -4.671875 1.4375 -5.765625 C 1.4375 -7.273438 1.929688 -8.492188 2.921875 -9.421875 C 3.910156 -10.347656 5.109375 -11.054688 6.515625 -11.546875 C 7.921875 -12.035156 9.40625 -12.359375 10.96875 -12.515625 C 12.53125 -12.671875 13.867188 -12.75 14.984375 -12.75 L 18 -12.75 C 18 -13.914062 17.90625 -14.960938 17.71875 -15.890625 C 17.53125 -16.816406 17.195312 -17.601562 16.71875 -18.25 C 16.25 -18.90625 15.601562 -19.40625 14.78125 -19.75 C 13.957031 -20.09375 12.910156 -20.265625 11.640625 -20.265625 C 10.953125 -20.265625 10.179688 -20.171875 9.328125 -19.984375 C 8.484375 -19.796875 7.679688 -19.507812 6.921875 -19.125 C 6.171875 -18.75 5.515625 -18.269531 4.953125 -17.6875 C 4.398438 -17.101562 4.085938 -16.410156 4.015625 -15.609375 C 4.015625 -15.503906 3.945312 -15.453125 3.8125 -15.453125 C 3.726562 -15.453125 3.675781 -15.492188 3.65625 -15.578125 L 2.578125 -19.34375 C 4.140625 -20.039062 5.695312 -20.535156 7.25 -20.828125 C 8.800781 -21.117188 10.222656 -21.265625 11.515625 -21.265625 C 13.316406 -21.265625 14.832031 -21.078125 16.0625 -20.703125 C 17.300781 -20.328125 18.296875 -19.796875 19.046875 -19.109375 C 19.804688 -18.421875 20.347656 -17.609375 20.671875 -16.671875 C 21.003906 -15.734375 21.171875 -14.679688 21.171875 -13.515625 L 21.171875 -5.953125 C 21.171875 -5.316406 21.191406 -4.691406 21.234375 -4.078125 C 21.273438 -3.472656 21.347656 -2.921875 21.453125 -2.421875 C 21.554688 -1.921875 21.703125 -1.5 21.890625 -1.15625 C 22.078125 -0.8125 22.300781 -0.597656 22.5625 -0.515625 C 22.78125 -0.429688 22.890625 -0.328125 22.890625 -0.203125 Z M 18 -11.765625 L 15.0625 -11.765625 C 14 -11.765625 12.890625 -11.695312 11.734375 -11.5625 C 10.585938 -11.425781 9.53125 -11.140625 8.5625 -10.703125 C 7.59375 -10.265625 6.796875 -9.648438 6.171875 -8.859375 C 5.554688 -8.066406 5.25 -7.007812 5.25 -5.6875 C 5.25 -4.8125 5.40625 -4.039062 5.71875 -3.375 C 6.039062 -2.71875 6.460938 -2.171875 6.984375 -1.734375 C 7.515625 -1.296875 8.144531 -0.960938 8.875 -0.734375 C 9.601562 -0.503906 10.367188 -0.390625 11.171875 -0.390625 C 12.648438 -0.390625 13.835938 -0.660156 14.734375 -1.203125 C 15.640625 -1.753906 16.328125 -2.476562 16.796875 -3.375 C 17.273438 -4.28125 17.59375 -5.304688 17.75 -6.453125 C 17.914062 -7.609375 18 -8.796875 18 -10.015625 Z M 18 -11.765625 "/></g></g></g><g fill="#ffffff" fill-opacity="1"><g transform="translate(113.834061, 79.875615)"><g><path d="M 22.890625 -20.65625 C 22.304688 -21.082031 21.796875 -21.40625 21.359375 -21.625 C 20.921875 -21.851562 20.332031 -21.96875 19.59375 -21.96875 C 18.976562 -21.96875 18.40625 -21.832031 17.875 -21.5625 C 17.34375 -21.300781 16.894531 -20.945312 16.53125 -20.5 C 17.300781 -20.207031 18.015625 -19.867188 18.671875 -19.484375 C 19.335938 -19.097656 19.914062 -18.640625 20.40625 -18.109375 C 20.894531 -17.585938 21.273438 -16.984375 21.546875 -16.296875 C 21.828125 -15.609375 21.96875 -14.828125 21.96875 -13.953125 C 21.96875 -12.835938 21.71875 -11.847656 21.21875 -10.984375 C 20.71875 -10.117188 20.0625 -9.394531 19.25 -8.8125 C 18.445312 -8.238281 17.539062 -7.785156 16.53125 -7.453125 C 15.519531 -7.117188 14.523438 -6.910156 13.546875 -6.828125 C 12.773438 -6.773438 12.007812 -6.75 11.25 -6.75 C 10.5 -6.75 9.742188 -6.75 8.984375 -6.75 C 8.609375 -6.75 8.234375 -6.6875 7.859375 -6.5625 C 7.492188 -6.445312 7.3125 -6.164062 7.3125 -5.71875 C 7.3125 -5.320312 7.664062 -5.007812 8.375 -4.78125 C 9.09375 -4.5625 9.914062 -4.382812 10.84375 -4.25 C 11.769531 -4.113281 12.664062 -4.019531 13.53125 -3.96875 C 14.394531 -3.914062 14.984375 -3.878906 15.296875 -3.859375 C 16.015625 -3.804688 16.863281 -3.695312 17.84375 -3.53125 C 18.820312 -3.375 19.75 -3.113281 20.625 -2.75 C 21.5 -2.394531 22.238281 -1.90625 22.84375 -1.28125 C 23.457031 -0.664062 23.765625 0.128906 23.765625 1.109375 C 23.765625 2.515625 23.359375 3.660156 22.546875 4.546875 C 21.742188 5.429688 20.71875 6.117188 19.46875 6.609375 C 18.226562 7.097656 16.859375 7.429688 15.359375 7.609375 C 13.859375 7.785156 12.40625 7.875 11 7.875 C 9.863281 7.875 8.679688 7.757812 7.453125 7.53125 C 6.222656 7.300781 5.085938 6.945312 4.046875 6.46875 C 3.015625 6 2.160156 5.382812 1.484375 4.625 C 0.816406 3.875 0.484375 2.96875 0.484375 1.90625 C 0.484375 1.21875 0.71875 0.617188 1.1875 0.109375 C 1.664062 -0.390625 2.242188 -0.8125 2.921875 -1.15625 C 3.597656 -1.5 4.3125 -1.757812 5.0625 -1.9375 C 5.820312 -2.125 6.46875 -2.257812 7 -2.34375 L 7 -2.421875 C 6.707031 -2.472656 6.382812 -2.546875 6.03125 -2.640625 C 5.6875 -2.734375 5.367188 -2.859375 5.078125 -3.015625 C 4.796875 -3.179688 4.5625 -3.390625 4.375 -3.640625 C 4.1875 -3.890625 4.09375 -4.195312 4.09375 -4.5625 C 4.09375 -5.019531 4.238281 -5.40625 4.53125 -5.71875 C 4.820312 -6.039062 5.171875 -6.3125 5.578125 -6.53125 C 5.992188 -6.757812 6.4375 -6.929688 6.90625 -7.046875 C 7.382812 -7.171875 7.796875 -7.234375 8.140625 -7.234375 L 8.140625 -7.3125 C 7.453125 -7.46875 6.75 -7.742188 6.03125 -8.140625 C 5.320312 -8.535156 4.675781 -9.023438 4.09375 -9.609375 C 3.507812 -10.191406 3.03125 -10.851562 2.65625 -11.59375 C 2.289062 -12.34375 2.109375 -13.128906 2.109375 -13.953125 C 2.109375 -15.191406 2.410156 -16.269531 3.015625 -17.1875 C 3.628906 -18.101562 4.398438 -18.859375 5.328125 -19.453125 C 6.253906 -20.046875 7.285156 -20.492188 8.421875 -20.796875 C 9.554688 -21.109375 10.65625 -21.265625 11.71875 -21.265625 C 12.40625 -21.265625 13.078125 -21.207031 13.734375 -21.09375 C 14.398438 -20.988281 15.066406 -20.867188 15.734375 -20.734375 C 16.765625 -22.015625 18.007812 -22.90625 19.46875 -23.40625 C 20.925781 -23.90625 22.453125 -24.117188 24.046875 -24.046875 Z M 18.5625 -14.109375 C 18.5625 -16.273438 17.976562 -17.875 16.8125 -18.90625 C 15.644531 -19.945312 14.023438 -20.46875 11.953125 -20.46875 C 9.867188 -20.46875 8.273438 -19.894531 7.171875 -18.75 C 6.066406 -17.613281 5.515625 -16 5.515625 -13.90625 C 5.515625 -11.789062 6.109375 -10.203125 7.296875 -9.140625 C 8.492188 -8.078125 10.128906 -7.546875 12.203125 -7.546875 C 14.367188 -7.546875 15.96875 -8.101562 17 -9.21875 C 18.039062 -10.332031 18.5625 -11.960938 18.5625 -14.109375 Z M 20.9375 2.265625 C 20.9375 1.285156 20.519531 0.519531 19.6875 -0.03125 C 18.851562 -0.59375 17.878906 -1.007812 16.765625 -1.28125 C 15.648438 -1.5625 14.53125 -1.726562 13.40625 -1.78125 C 12.28125 -1.84375 11.414062 -1.875 10.8125 -1.875 C 10.09375 -1.875 9.304688 -1.832031 8.453125 -1.75 C 7.609375 -1.664062 6.820312 -1.484375 6.09375 -1.203125 C 5.363281 -0.929688 4.757812 -0.515625 4.28125 0.046875 C 3.8125 0.617188 3.578125 1.382812 3.578125 2.34375 C 3.578125 3.21875 3.867188 3.945312 4.453125 4.53125 C 5.035156 5.113281 5.734375 5.578125 6.546875 5.921875 C 7.367188 6.265625 8.222656 6.507812 9.109375 6.65625 C 10.003906 6.800781 10.769531 6.875 11.40625 6.875 C 14.5 6.875 16.859375 6.441406 18.484375 5.578125 C 20.117188 4.722656 20.9375 3.617188 20.9375 2.265625 Z M 20.9375 2.265625 "/></g></g></g><g fill="#ffffff" fill-opacity="1"><g transform="translate(137.911468, 79.875615)"><g><path d="M 22.890625 -0.203125 C 22.890625 -0.015625 22.769531 0.078125 22.53125 0.078125 C 22.445312 0.078125 22.21875 0.0625 21.84375 0.03125 C 21.476562 0.0078125 21.191406 0 20.984375 0 C 20.710938 0 20.453125 0.0078125 20.203125 0.03125 C 19.953125 0.0625 19.722656 0.078125 19.515625 0.078125 C 19.347656 0.078125 19.222656 0.0390625 19.140625 -0.03125 C 19.066406 -0.113281 19.03125 -0.179688 19.03125 -0.234375 C 19.03125 -0.742188 18.929688 -1.351562 18.734375 -2.0625 C 18.535156 -2.78125 18.410156 -3.414062 18.359375 -3.96875 L 18.28125 -3.96875 C 17.425781 -2.25 16.269531 -1.054688 14.8125 -0.390625 C 13.363281 0.265625 11.722656 0.59375 9.890625 0.59375 C 8.941406 0.59375 7.960938 0.46875 6.953125 0.21875 C 5.941406 -0.03125 5.023438 -0.421875 4.203125 -0.953125 C 3.390625 -1.484375 2.722656 -2.144531 2.203125 -2.9375 C 1.691406 -3.726562 1.4375 -4.671875 1.4375 -5.765625 C 1.4375 -7.273438 1.929688 -8.492188 2.921875 -9.421875 C 3.910156 -10.347656 5.109375 -11.054688 6.515625 -11.546875 C 7.921875 -12.035156 9.40625 -12.359375 10.96875 -12.515625 C 12.53125 -12.671875 13.867188 -12.75 14.984375 -12.75 L 18 -12.75 C 18 -13.914062 17.90625 -14.960938 17.71875 -15.890625 C 17.53125 -16.816406 17.195312 -17.601562 16.71875 -18.25 C 16.25 -18.90625 15.601562 -19.40625 14.78125 -19.75 C 13.957031 -20.09375 12.910156 -20.265625 11.640625 -20.265625 C 10.953125 -20.265625 10.179688 -20.171875 9.328125 -19.984375 C 8.484375 -19.796875 7.679688 -19.507812 6.921875 -19.125 C 6.171875 -18.75 5.515625 -18.269531 4.953125 -17.6875 C 4.398438 -17.101562 4.085938 -16.410156 4.015625 -15.609375 C 4.015625 -15.503906 3.945312 -15.453125 3.8125 -15.453125 C 3.726562 -15.453125 3.675781 -15.492188 3.65625 -15.578125 L 2.578125 -19.34375 C 4.140625 -20.039062 5.695312 -20.535156 7.25 -20.828125 C 8.800781 -21.117188 10.222656 -21.265625 11.515625 -21.265625 C 13.316406 -21.265625 14.832031 -21.078125 16.0625 -20.703125 C 17.300781 -20.328125 18.296875 -19.796875 19.046875 -19.109375 C 19.804688 -18.421875 20.347656 -17.609375 20.671875 -16.671875 C 21.003906 -15.734375 21.171875 -14.679688 21.171875 -13.515625 L 21.171875 -5.953125 C 21.171875 -5.316406 21.191406 -4.691406 21.234375 -4.078125 C 21.273438 -3.472656 21.347656 -2.921875 21.453125 -2.421875 C 21.554688 -1.921875 21.703125 -1.5 21.890625 -1.15625 C 22.078125 -0.8125 22.300781 -0.597656 22.5625 -0.515625 C 22.78125 -0.429688 22.890625 -0.328125 22.890625 -0.203125 Z M 18 -11.765625 L 15.0625 -11.765625 C 14 -11.765625 12.890625 -11.695312 11.734375 -11.5625 C 10.585938 -11.425781 9.53125 -11.140625 8.5625 -10.703125 C 7.59375 -10.265625 6.796875 -9.648438 6.171875 -8.859375 C 5.554688 -8.066406 5.25 -7.007812 5.25 -5.6875 C 5.25 -4.8125 5.40625 -4.039062 5.71875 -3.375 C 6.039062 -2.71875 6.460938 -2.171875 6.984375 -1.734375 C 7.515625 -1.296875 8.144531 -0.960938 8.875 -0.734375 C 9.601562 -0.503906 10.367188 -0.390625 11.171875 -0.390625 C 12.648438 -0.390625 13.835938 -0.660156 14.734375 -1.203125 C 15.640625 -1.753906 16.328125 -2.476562 16.796875 -3.375 C 17.273438 -4.28125 17.59375 -5.304688 17.75 -6.453125 C 17.914062 -7.609375 18 -8.796875 18 -10.015625 Z M 18 -11.765625 "/></g></g></g><g clip-path="url(#5457aa5427)"><path fill="#ca7f0f" d="M 186.105469 124.125 C 180.464844 121.617188 175.371094 117.898438 171.328125 113.21875 C 171.089844 112.941406 170.847656 112.65625 170.617188 112.367188 C 171.625 111.796875 172.597656 111.167969 173.53125 110.492188 C 177.460938 107.632812 180.734375 103.832031 182.453125 99.246094 C 182.789062 98.359375 182.964844 97.304688 182.09375 96.664062 C 181.371094 96.128906 180.335938 96.203125 179.511719 96.425781 C 178.414062 96.730469 177.46875 97.453125 176.574219 98.136719 C 175.453125 98.988281 174.417969 99.941406 173.472656 100.984375 C 172.808594 101.726562 172.207031 102.519531 171.644531 103.34375 C 171.117188 100.429688 169.203125 97.804688 166.445312 96.582031 C 165.125 95.992188 163.386719 95.980469 162.820312 97.570312 C 162.320312 98.988281 162.960938 100.570312 163.457031 101.882812 C 164.835938 105.496094 166.703125 108.882812 169.007812 111.953125 C 159.871094 116.695312 149.160156 116.667969 139.109375 115.152344 C 132.875 114.210938 126.714844 112.804688 120.519531 111.601562 C 114.554688 110.4375 108.570312 109.371094 102.550781 108.511719 C 90.628906 106.820312 78.515625 105.988281 66.503906 107.191406 C 54.980469 108.335938 43.105469 111.351562 33.246094 117.632812 C 32.070312 118.378906 30.945312 119.183594 29.851562 120.046875 C 29.714844 120.15625 29.898438 120.394531 30.039062 120.285156 C 35.011719 116.613281 40.609375 114.117188 46.488281 112.257812 C 52.492188 110.363281 58.695312 109.152344 64.957031 108.484375 C 77.542969 107.152344 90.277344 108.097656 102.773438 109.910156 C 109.070312 110.824219 115.332031 111.972656 121.582031 113.210938 C 128 114.488281 134.390625 115.921875 140.894531 116.742188 C 147.144531 117.53125 153.582031 117.742188 159.789062 116.4375 C 163.226562 115.71875 166.613281 114.523438 169.730469 112.851562 C 171.476562 115.042969 173.445312 117.058594 175.621094 118.859375 C 178.691406 121.40625 182.066406 123.449219 185.757812 124.9375 C 186.226562 125.148438 186.578125 124.335938 186.105469 124.125 Z M 166.105469 105.609375 C 165.363281 104.230469 164.726562 102.796875 164.171875 101.335938 C 163.773438 100.273438 162.859375 98.097656 164.085938 97.238281 C 164.957031 96.628906 166.261719 97.367188 167.027344 97.839844 C 167.730469 98.273438 168.359375 98.820312 168.914062 99.429688 C 170.136719 100.78125 170.894531 102.511719 171.070312 104.324219 C 171.097656 104.664062 171.53125 104.8125 171.734375 104.5 C 173.234375 102.121094 175.332031 100.03125 177.65625 98.441406 C 178.550781 97.820312 179.496094 97.203125 180.632812 97.210938 C 181.003906 97.210938 181.53125 97.265625 181.707031 97.644531 C 181.984375 98.230469 181.371094 99.246094 181.132812 99.773438 C 179.105469 104.183594 175.730469 107.792969 171.679688 110.417969 C 171.105469 110.789062 170.523438 111.140625 169.933594 111.472656 C 168.480469 109.640625 167.195312 107.671875 166.105469 105.609375 Z M 166.105469 105.609375 " fill-opacity="1" fill-rule="nonzero"/></g><g clip-path="url(#394d44430f)"><path fill="#ca7f0f" d="M 101.242188 50.515625 L 104.554688 47.203125 C 104.738281 47.027344 105.027344 47.027344 105.203125 47.203125 L 108.515625 50.515625 C 108.691406 50.691406 108.691406 50.988281 108.515625 51.164062 L 105.203125 54.476562 C 105.023438 54.652344 104.730469 54.652344 104.554688 54.476562 L 101.242188 51.164062 C 101.0625 50.980469 101.0625 50.691406 101.242188 50.515625 Z M 158.222656 51.429688 C 158.433594 51.429688 158.609375 51.257812 158.609375 51.039062 C 158.609375 50.824219 158.4375 50.648438 158.222656 50.648438 L 111.5 50.648438 C 111.289062 50.648438 111.109375 50.820312 111.109375 51.039062 C 111.109375 51.25 111.28125 51.429688 111.5 51.429688 Z M 111.5 52.125 C 112.097656 52.125 112.585938 51.636719 112.585938 51.039062 C 112.585938 50.441406 112.097656 49.953125 111.5 49.953125 C 110.902344 49.953125 110.414062 50.441406 110.414062 51.039062 C 110.414062 51.636719 110.902344 52.125 111.5 52.125 Z M 158.222656 52.125 C 158.816406 52.125 159.304688 51.636719 159.304688 51.039062 C 159.304688 50.441406 158.816406 49.953125 158.222656 49.953125 C 157.625 49.953125 157.136719 50.441406 157.136719 51.039062 C 157.136719 51.636719 157.625 52.125 158.222656 52.125 Z M 98.253906 51.429688 C 98.464844 51.429688 98.640625 51.257812 98.640625 51.039062 C 98.640625 50.824219 98.472656 50.648438 98.253906 50.648438 L 51.53125 50.648438 C 51.320312 50.648438 51.144531 50.820312 51.144531 51.039062 C 51.144531 51.25 51.316406 51.429688 51.53125 51.429688 Z M 51.53125 52.125 C 52.128906 52.125 52.617188 51.636719 52.617188 51.039062 C 52.617188 50.441406 52.125 49.957031 51.53125 49.957031 C 50.9375 49.957031 50.449219 50.445312 50.449219 51.042969 C 50.449219 51.640625 50.9375 52.125 51.53125 52.125 Z M 98.253906 52.125 C 98.851562 52.125 99.335938 51.636719 99.335938 51.039062 C 99.335938 50.441406 98.851562 49.953125 98.253906 49.953125 C 97.65625 49.957031 97.167969 50.445312 97.167969 51.042969 C 97.167969 51.640625 97.65625 52.125 98.253906 52.125 Z M 98.253906 52.125 " fill-opacity="1" fill-rule="evenodd"/></g></svg>